<svg width="15" height="17" xmlns="http://www.w3.org/2000/svg"><path d="M0 16.699V1.698h2v2h3v-2h5v2h3v-2h2v15zM14 4.698H1v11h13zm-11 2H2v-1h1zm0 2H2v-1h1zm0 2H2v-1h1zm0 2H2v-1h1zM3 14.7H2v-1h1zm2-8.001H4v-1h1zm0 2H4v-1h1zm0 2H4v-1h1zm0 2H4v-1h1zM5 14.7H4v-1h1zm2-8.001H6v-1h1zm0 2H6v-1h1zm0 2H6v-1h1zm0 2H6v-1h1zM7 14.7H6v-1h1zm2-8.001H8v-1h1zm0 2H8v-1h1zm0 2H8v-1h1zm0 2H8v-1h1zM9 14.7H8v-1h1zm2-8.001h-1v-1h1zm0 2h-1v-1h1zm0 2h-1v-1h1zm0 2h-1v-1h1zm2-6h-1v-1h1zm0 2h-1v-1h1zm0 2h-1v-1h1zm0 2h-1v-1h1zm-2-12h1v2h-1zm-8 0h1v2H3z" fill="#999"/></svg>