<svg xmlns="http://www.w3.org/2000/svg" width="150" height="131"><path fill-rule="evenodd" fill="#F67A00" d="M99.897 13.269V4.313c0-.363-.146-.69-.38-.925l-.006-.006c-.234-.235-.56-.282-.923-.282H5.195c-.362 0-.69.048-.928.285.043.238-.382.566-.382.928v122.371c0 .776.425.691.382.929.238.235.566.383.928.383h93.393c.362 0 .689-.148.927-.383.235-.238.382-.153.382-.929v-11.207H58.469a4.284 4.284 0 01-3.032-1.264 4.31 4.31 0 01-1.272-3.049V56.298c0-.829.67-1.501 1.497-1.501a1.5 1.5 0 011.498 1.501v54.866c0 .353.137.681.387 1.786.234-.621.56-.474.922-.474h8.878c4.407-1.336 6.173-3.323 6.019-7.813h.004c.05-.778 1.31-1.395 1.488-1.395l59.995.04c.129-.006.262.005.395.035 1.272.181 1.31.982 1.129 1.788-.936 4.18-2.631 6.767-5.129 8.34-2.436 2.029-5.516 2.006-9.337 2.006h-19.018v11.207a4.307 4.307 0 01-1.264 3.043l-.005.005a4.288 4.288 0 01-3.036 1.266H5.195c-1.065 0-2.256-.486-3.036-1.266l-.006-.005a4.306 4.306 0 01-1.263-3.043V4.313c0-1.184.484-1.793 1.263-3.042C2.964.458 4.46 0 5.195 0h93.393c1.178 0 2.252.484 3.033 1.264.81 1.486 1.272 1.899 1.272 3.049v20.191h19.018c2.039 0 2.262.485 3.041 1.266l-.003.004.003.002a4.296 4.296 0 011.263 3.042l.033 36.165 7.736-7.629c.566-.559 1.464-.572 2.316-.046l.01-.002 6.686 6.27c.613.554.663 2.204.111 2.116.583.042.193.081-.118.117l-16.73 16.543-.044 8.558a1.5 1.5 0 01-1.497 1.501 1.5 1.5 0 01-1.498-1.501l-.006-5.597-9.941 9.805a1.48 1.48 0 01-1.11.428h-.015l-.007-.001-6.233-.276a1.494 1.494 0 01-1.427-1.425l-.302-6.394c-.021.35.153-.849.444-1.138l18.618-18.363-.021-39.131c0-.362.52-.69-.382-.929l-.004.004a1.302 1.302 0 00-.923-.388H58.469c-.353 0-.679.138-.928.388a1.305 1.305 0 00-.381.925v9.569a1.5 1.5 0 01-1.498 1.501 1.499 1.499 0 01-1.497-1.501v-9.569a4.31 4.31 0 011.262-3.04l.005-.004a4.286 4.286 0 013.037-1.27h41.428V13.269zm-14.612.001c.827 0 1.497.714 1.497 1.5s-.538 1.36-1.245 1.479a1.373 1.373 0 01-.233.022h-.038a1.5 1.5 0 01.019-3.001zm-.03 3.001H44.943l-.054.001H33.765v3.309l9.543 9.092h3.016c.96 0 2.446.797 2.446 1.758v8.532c0 .965-1.486 1.757-2.446 1.757H18.213a1.757 1.757 0 01-1.754-1.757v-8.532a1.76 1.76 0 011.754-1.758h3.177l9.381-9.271v-3.13H14.189a1.504 1.504 0 01-1.498-1.501c0-.826.673-1.5 1.498-1.5h1.708l69.388-.002-.03 3.002zm-6.311 82.436c-3.504 0-6.344-2.848-6.344-6.359s2.84-6.358 6.344-6.358c3.504 0 6.344 2.847 6.344 6.358 0 3.511-2.84 6.359-6.344 6.359zm-4.331-42.959h30.701c1.982 0 1.982 3.002 0 3.002H74.613c-1.981 0-1.981-3.002 0-3.002zm0-12.43h30.701c1.982 0 1.982 3.002 0 3.002H74.613c-1.981 0-1.981-3.002 0-3.002zm0 6.192h30.701c1.982 0 1.982 3.002 0 3.002H74.613c-1.981 0-1.981-3.002 0-3.002zm0 18.668h30.701c1.982 0 1.982 3.002 0 3.002H74.613c-1.981 0-1.981-3.002 0-3.002zm0-6.238h30.701c1.982 0 1.982 3.001 0 3.001H74.613c-1.981 0-1.981-3.001 0-3.001zM11.42 45.162h43.762c1.981 0 1.981 3.001 0 3.001l-43.762.001a.356.356 0 00-.222.064v72.227a.35.35 0 00.222.066h71.327c1.981 0 1.98 3.002 0 3.002H11.42a3.328 3.328 0 01-2.204-.831c-.624-.556-1.013-1.335-1.013-2.2v-72.3c0-.865.388-1.644 1.013-2.2a3.327 3.327 0 012.204-.83zm7.26 9.621h10.154c.891 0 1.615.76 1.615 1.693V67.98c0 .34-.724.812-1.615.812H18.68c-1.504 0-2.227-.472-2.227-.812V56.476c0-.933.723-1.693 2.227-1.693zm0 40.057h10.154c.891 0 1.615.76 1.615 1.694v10.621c0 1.735-.724 1.695-1.615 1.695H18.68c-1.504 0-2.227.04-2.227-1.695V96.534c0-.934.723-1.694 2.227-1.694zm18.154 0h10.767c.89 0 1.615.76 1.615 1.694v10.621c0 1.735-.725 1.695-1.615 1.695H36.834c-.89 0-1.614.04-1.614-1.695V96.534c0-.934.724-1.694 1.614-1.694zm0-20.012h10.767c.89 0 1.615.76 1.615 1.694v10.622c0 1.626-.725 1.693-1.615 1.693H36.834c-.89 0-1.614-.067-1.614-1.693V76.522c0-.934.724-1.694 1.614-1.694zm-18.154 0h10.154c.891 0 1.615.76 1.615 1.694v10.622c0 1.626-.724 1.693-1.615 1.693H18.68c-1.504 0-2.227-.067-2.227-1.693V76.522c0-.934.723-1.694 2.227-1.694zm18.154-20.045h10.767c.89 0 1.615.76 1.615 1.693V67.98c0 .34-.725.812-1.615.812H36.834c-.89 0-1.614-.472-1.614-.812V56.476c0-.933.724-1.693 1.614-1.693zm2.127-26.11l-6.787-6.467-6.788 6.467h13.575zm6.849 3.003H19.455v6.042H45.81v-6.042zm26.948 80.8h49.153c3.295 0 5.879-.363 7.747-1.538 1.449-.678 2.543-2.38 3.303-4.641l-56.726-.038c-.277 2.695-1.103 5.441-3.477 6.217zm65.611-59.259l1.187-1.007c.896-1.091 2.052-1.515 3.218-1.506 1.172.009 2.355.46 3.726 2.096l1.882 1.344.022.02.002-.002.067.063.054.055c.889.899 1.245 2.088 1.166 3.276a5.193 5.193 0 01-1.333 3.105l.004.004a4.73 4.73 0 01-.128.132l-.833.85a1.49 1.49 0 01-2.063.062l-.002.002-6.966-6.269a1.5 1.5 0 01-.003-2.225zm3.305.915l-.133.133 4.726 4.254a2.17 2.17 0 00.442-1.162c.025-.372-.066-.724-.297-.964l-.065-.062.002-.002-1.969-2.117c-.709-.335-1.169-.515-1.617-.518a1.499 1.499 0 00-1.089.438zM66.882 8.808h6.079a2.485 2.485 0 012.474 2.479v10.219H64.409V11.287a2.483 2.483 0 012.473-2.479z"/></svg>