<svg xmlns="http://www.w3.org/2000/svg" width="119" height="100"><path fill-rule="evenodd" fill="#DB8306" d="M95.922 52.611V52.1h-.488c-.753 0-.794-.774-.794-1.599s.041-1.401.794-1.401h.488V38.665c0-.753.729-1.172 1.42-1.172h3.805c2.119 0 4.478.937 5.743 2.7 1.036 1.428 1.246 3.248.433 5.017-.709 1.189-2.173 2.272-3.627 2.764-1.572.531-3.284.396-4.927.396v.73h.668c.754 0 1.371.576 1.371 1.401 0 .825-.617 1.599-1.371 1.599h-.668v.511c0 .528-.401.926-.883 1.087a1.766 1.766 0 01-1.081 0c-.478-.16-.883-.56-.883-1.087zM12.261 76.976h14.097a1.93 1.93 0 011.363.563c.959.348.564.828.564 1.359V98.78c0-.173.395 1.12-.564.656-.35.349-.832.563-1.363.563H12.261a1.92 1.92 0 01-1.363-.563c-.349.454-.566-.829-.566-.656V78.898a1.93 1.93 0 011.929-1.922zm13.016 2.999H13.34V97.1h11.937V79.975zM65.54 50.139h13.613c.531 0 1.015.216 1.363.563.349.798 1.284.829 1.284 1.908v46.17c0-.173-.935 1.11-1.284.656-.35.349-.832.563-1.363.563H65.54c-1.017 0-1.13-.214-1.847-.563-.349.464-.566-.829-.566-.656V52.61c0-1.079.217-1.12.566-1.908.717-.347.83-.563 1.847-.563zm13.18 2.999H66.135V97.1H78.72V53.138zm12.731 20.619h14.1c1.269 0 1.014.217 1.363.563.348.349.564.829.564 1.359V98.78c0-.173-.216 1.11-.564.656-.349.349-.094.563-1.363.563h-14.1c-.53 0-1.012-.214-.551-.563-1.158.464-1.376-.829-1.376-.656V75.679c0-.531.218-1.011 1.376-1.359-.461-.346.021-.563.551-.563zm13.019 2.999H92.532V97.1h11.938V76.756zM38.658 64.947h14.098a1.92 1.92 0 011.927 1.921V98.78c0-.173-.216 1.11-.564.656a1.924 1.924 0 01-1.363.563H38.658a1.922 1.922 0 01-1.363-.563c-.348.454-.566-.829-.566-.656V66.868a1.931 1.931 0 011.929-1.921zm13.017 2.999H39.737V97.1h11.938V67.946zM13.24 60.207v-.612h-.705c-.754 0-1.369-.674-1.369-.635 0-1.689.615-2.364 1.369-2.364h.705V46.26c0-.753.511-.38 1.202-.38h3.807c2.119 0 4.479.36 5.742 1.908 1.299 1.429 1.245 3.572.434 4.828-.709 1.378-2.175 3.154-3.626 2.952-1.573.532-3.286.397-4.929.397v.631h.669c.754 0 1.369.675 1.369 2.364 0-.039-.615.635-1.369.635h-.669v.612c0 .528-.402.926-.882 1.086a1.77 1.77 0 01-1.082 0c-.478-.159-.666-.56-.666-1.086zm15.556-21.779l9.13-9.027a17.885 17.885 0 01-4.091-11.407c0-4.744 2.021-9.468 5.287-12.724C42.387 2.13 46.901 0 51.882 0c4.984 0 9.496 2.13 12.762 5.27 3.265 3.256 5.286 7.98 5.286 12.724 0 2.867-.672 5.578-1.33 7.984l16.89 10.359c.758-.447 1.663-2.397 2.691-3.423a18.02 18.02 0 0112.762-5.27c4.984 0 9.496 2.014 12.76 5.27a17.909 17.909 0 015.288 12.724c0 4.969-2.021 9.468-5.288 12.724a18.008 18.008 0 01-12.76 5.271 18.016 18.016 0 01-12.762-5.271 17.918 17.918 0 01-5.285-12.724c0-2.332.444-3.878 1.255-6.338L66.503 28.544c-.562.773-1.183 1.896-1.859 2.173a18.017 18.017 0 01-12.762 5.272c-4.541 0-8.69-1.674-11.692-4.436l-9.275 9.004-.033.03c3.221 3.25 6.028 7.717 6.028 12.646 0 4.968-2.19 9.468-6.105 12.725-3.266 3.256-7.535 5.27-12.375 5.27-4.81 0-9.88-2.014-13.147-5.27C2.17 62.701.3 58.201.3 53.233s1.87-9.468 4.983-12.724c3.267-3.256 8.337-5.271 13.147-5.271 3.559 0 7.21 1.264 10.18 3.406.053-.073.116-.146.186-.216zm18.067-13.462v-.61h-.489c-.754 0-.874-.674-.874-1.499v-.001c0-.546.12-1.499.874-1.499h.489V11.2c0-.933.727-1.351 1.418-1.351h4.579c1.347 0 3.707.937 4.97 2.699 1.038 1.428 1.92 3.248.432 4.829-.707 1.378-1.372 2.461-3.624 2.952-.988.531-3.286.396-4.929.396v.632h.669c.754 0 1.369.953 1.369 1.499v.001c0 .825-.615 1.499-1.369 1.499h-.669v.61c0 .528-.402.927-.881 1.574-.337-.374-.018-.374-1.083 0-.478-.646-.882-1.047-.882-1.574zm-5.614 3.631a15.007 15.007 0 0010.633 4.392c4.478 0 7.914-1.678 10.636-4.392a14.932 14.932 0 004.404-10.603A14.93 14.93 0 0062.518 7.39c-2.722-2.713-6.158-4.391-10.636-4.391A15.01 15.01 0 0041.249 7.39a14.924 14.924 0 00-4.406 10.604c0 4.14 1.684 7.89 4.406 10.603zm8.46-16.392v6.164c.948 0 2.238.089 3.153-.061a4.264 4.264 0 001.927-.848c.669-.539 1.126-1.299 1.126-2.173 0-.657-.243-.757-.662-1.73-.666-.794-1.273-1.352-2.293-1.352h-3.251zM7.41 63.837c2.72 2.713 6.48 4.391 11.02 4.391 3.767 0 7.527-1.678 10.249-4.391 2.722-2.714 5.151-6.463 5.151-10.604 0-3.313-2.429-7.89-5.151-10.603-2.722-2.714-6.482-4.392-10.249-4.392-4.54 0-8.3 1.678-11.02 4.392-2.722 2.713-4.01 7.29-4.01 10.603 0 4.141 1.288 7.89 4.01 10.604zm8.46-16.392v6.164c.947 0 2.24.089 3.36-.061a4.708 4.708 0 001.719-.848c.67-.539 1.801-1.3 1.801-2.173 0-.658-.917-1.234-1.336-1.73-.666-.597-2.155-1.352-3.157-1.352H15.87zm74.438 8.797c2.992 2.714 6.482 4.392 10.635 4.392 5.027 0 7.913-1.678 10.634-4.392a14.928 14.928 0 004.406-10.604c0-4.141-1.685-7.89-4.406-10.288-2.721-3.029-5.607-4.707-10.634-4.707-4.153 0-7.643 1.678-10.635 4.707-2.72 2.398-4.404 6.147-4.404 10.288a14.93 14.93 0 004.404 10.604zm8.461-16.392v6.29c.948 0 3.031-.037 3.151-.187a4.247 4.247 0 001.927-.848c.67-.539 1.128-1.299 1.128-2.173 0-.657-.243-1.234-.662-1.73-.667-.795-2.154-1.352-3.158-1.352h-2.386z"/></svg>