<svg xmlns="http://www.w3.org/2000/svg" width="101" height="105"><path fill-rule="evenodd" fill="#DB8306" d="M48.963 58.216v44.979c0 2.394-3.641 2.394-3.641 0V86.707c-.79.614-1.697 1.081-2.678 1.933l1.816 3.55c2.915 6.19-14.564 13.404-17.207 7.63a1.112 1.112 0 01-.047-.115l-4.979-10.838a7.49 7.49 0 01-3.111.674c-4.128 0-7.491-3.342-7.491-6.581 0-3.797 1.738-6.432 4.875-7.636L2.628 46.205C.997 44.481.2 42.16.2 39.608c0-2.138.297-4.63 1.171-6.279C3.439 29.431 7.494 28.62 11.7 28.62c4.762 0 10.13 1.173 14.004 3.203 1.116.387.636.535.742.915l6.243 21.087v-2.842c0-5 5.124-10.288 10.02-10.759l11.121-.048c3.514-.015 3.404-.405 5.023 3.254 1.591 3.8 3.277 13.387 4.489 14.283l.957-17.56c2.114-.005 2.633-.005 5.161 0l.887 17.56c1.195-.884 2.852-10.543 4.423-14.134 1.813-4.142 1.804-3.417 5.902-3.399l10.308.044c4.897.471 10.02 5.759 10.02 10.759v39.205c0 2.277-.22 4.332-2.407 5.808-2.785 2.767-7.126 3.464-10.225.638v6.561c0 2.394-3.642 2.394-3.642 0V58.216c0-2.394 3.642-2.395 3.642 0 0 7.347.022 24.624.022 31.972 0 1.169.497 2.248 1.297 3.045 2.86 3.507 8.158 1.047 8.158-3.045V50.983c.016-2.23-3.277-6.336-5.85-7.285-.367-.136-1.735-.517-2.295-.509h-9.173l-2.098.275c-2.28.298-4.501 17.383-7.978 17.092-1.143-.095-6.07-.095-7.213 0-3.477.291-4.718-17.167-7.916-17.278l-2.16-.089h-9.173c-.326-.008-1.379.373-2.295.509-2.573.949-5.867 5.055-5.85 7.285v22.28l5.976 11.401c.314-.101 1.351-.534 2.38-1.36.602-.796 1.099-1.874 1.099-3.043 0-7.349.023-14.698.023-22.045 0-2.395 3.641-2.394 3.641 0zm2.81-42.529c0-4.056 1.536-8.4 4.716-11.538a14.349 14.349 0 014.139-2.851v5.244c0 1.97 2.996 1.969 2.996 0V.309a36.357 36.357 0 016.243 0v6.233c0 1.97 2.996 1.969 2.996 0V1.298c1.502.685 2.907 1.635 4.337 2.851 2.982 3.138 4.768 7.349 4.768 11.538h3.591c1.982 0 1.98 2.978 0 2.978H47.932c-1.979 0-1.982-2.978 0-2.978h3.841zm7.188 15.533c4.252 4.028 11.317 4.028 15.568 0 1.765-1.952 2.854-4.02 3.136-6.678H55.826c.282 2.658 1.371 4.726 3.135 6.678zm-2.118 1.908a13.854 13.854 0 01-4.074-9.964l.004-1.601h27.953c0 .002-.018.698-.006 1.727.07 3.511-1.386 7.167-4.072 9.838-5.416 5.382-14.389 5.383-19.805 0zM24.683 87.7l5.238 10.773c.021.037.041.075.059.114.997 2.181 12.957-2.733 11.765-5.335l-2.289-4.983-20.739-45.145c-1.856 4.7-6.924 7.032-11.566 5.784l11.826 25.743.139-.002c4.128 0 7.491 3.343 7.491 8.311 0 1.44-.728 2.789-1.924 4.74zm-5.567-10.071c-2.49 0-4.494 1.991-4.494 5.331 0 1.611 2.004 3.602 4.494 3.602 2.49 0 4.494-1.991 4.494-3.602 0-3.34-2.004-5.331-4.494-5.331zm13.573-11.234v-2.418a1.482 1.482 0 01-.257-.496l-8.677-29.313c-3.458-1.716-8.02-2.758-12.055-2.758-3.055 0-6.157.424-7.54 3.304-.795 1.227-1.166 2.834-1.166 4.894 0 1.838.75 3.502 1.961 4.706 1.575 1.092 2.576 1.806 4.22 1.93l.005.001.126.008.04.002h.003c4.107.191 8.598-4.49 6.397-8.377-1.861-3.206-8.026-1.378-7.586 1.737.65.819-.695 1.536-1.519 1.6-.824.064-.681-.548-1.331-1.367-.317-.465-.01-.903.24-1.314-.008-3.867 4.443-5.826 7.952-5.387h.006c1.943.243 5.195 2.799 6.072 4.713l13.109 28.535z"/></svg>