<svg xmlns="http://www.w3.org/2000/svg" width="118" height="107"><path fill-rule="evenodd" fill="#DB8306" d="M81.987 60.761V3.49h26.263v77.091l-29.302-.01h-6.08v-19.82l9.119.01zm7.259-7.634h11.503c1.98 0 1.979 3.005 0 3.005H89.246c-1.98 0-1.981-3.005 0-3.005zm0-6.196h11.503c1.98 0 1.979 3.004 0 3.004H89.246c-1.98 0-1.981-3.004 0-3.004zm0-6.244h11.503c1.98 0 1.979 3.004 0 3.004H89.246c-1.98 0-1.981-3.004 0-3.004zm0-12.346h11.503c1.98 0 1.979 3.004 0 3.004H89.246c-1.98 0-1.981-3.004 0-3.004zm0-6.197h11.503c1.98 0 1.979 3.004 0 3.004H89.246c-1.98 0-1.981-3.004 0-3.004zm0-12.441h11.503c1.98 0 1.979 3.004 0 3.004H89.246c-1.98 0-1.981-3.004 0-3.004zm0 6.197h11.503c1.98 0 1.979 3.004 0 3.004H89.246c-1.98 0-1.981-3.004 0-3.004zm0 18.685h11.503c1.98 0 1.979 3.004 0 3.004H89.246c-1.98 0-1.981-3.004 0-3.004zm-9.071 37.273h20.574c1.98 0 1.979 3.005 0 3.005H80.175c-1.98 0-1.981-3.005 0-3.005zm9.071-12.44h11.503c1.98 0 1.979 3.004 0 3.004H89.246c-1.98 0-1.981-3.004 0-3.004zm-9.071 6.197h20.574c1.98 0 1.979 3.004 0 3.004H80.175c-1.98 0-1.981-3.004 0-3.004zm-10.346-17.06h2.547c.835 0 1.519.687 1.519 2.235v.01c0 .117-.685.805-1.519.805H61.487c-.04 0-.08-.002-.119-.005h-1.039c-.84 0-1.228.567-1.818 1.034-1.047.831-4.188 3.244-4.642 3.922 2.487 3.725 2.927 9.658 1.454 14.042-.789 2.348-.901 1.341.556 3.199.745.95 4.115 5.157 4.83 5.638l-.002-12.968c.039-2.942.535-2.666 9.122-2.666-.024-1.548.01-2.992.054-4.096.046-1.188.33-2.005 1.465-2.006h7.6V1.524c0-.922.601-1.524 1.519-1.524h29.078c.919 0 2.115.602 2.115 1.524v79.047h4.812c.837 0 1.52.688 1.52 2.389 0-.026-.686.661-1.52.661h-2.367v.009H60.709c-1.15 0-1.715-1.167-2.328-1.857l-5.461-6.532c-.654 1.24-1.639 2.189-1.71 3.051 2.15.576 2.685 4.644.603 6.515-.673.606-1.447.874-2.462 1.153-1.777.486-3.711 1.167-5.551 1.674-1.816.501-3.82 1.126-5.561 1.664-1.308.403-1.479 3.152-2.796 4.439-1.115 2.26-1.681 2.152-4.073 3.158l-7.595 2.995c-.553.774-7.615 5.806-9.112 6.802-.672.495-1.313.718-2.122-.327h-.001c-.08-.676-.347-1.634.326-2.131l7.596-5.595c-1.517-3.173-9.8-13.123-11.624-16.534l-6.424 4.731a1.519 1.519 0 01-2.123-.327v-.001c-.089-.676.269-1.634.325-2.13l8.779-6.466c2.816-2.079 5.605-4.332 8.378-6.484-.532-1.114-1.14-3.669-1.14-4.538 0-4.02.063-5.306 1.545-8.974 1.184-2.932 8.027-10.226 10.234-12.799-.308-1.331-1.52-3.137-1.52-4.576 0-1.866 1.541-3.241 3.42-3.241.492 0 .195.127.95.19.93-1.763 2.455-4.194 4.848-4.194 2.767 0 4.28 1.384 5.411 4.194.781-.065.424-.19 1.139-.19 1.713 0 3.23 1.493 3.23 3.241 0 1.439-1.21 3.245-1.519 4.576.333.5.448.734.898 1.195 1.217 1.246 5.991 6.907 6.701 7.385 1.237-.332 5.778-5.149 7.219-5.149h10.64v.007zM31.95 55.353l-.036-.169c-.465-2.005-.462-1.939-.462-3.967 0-2.107.994-2.749 1.329-3.977-2.034 0-1.111-.01-2.805.972l-1.782 2.024c-1.88 2.362-5.913 6.252-7.002 8.607-2.638 5.708-1.007 7.916-.949 10.487.568-.151 1.536-1.084 2.123-1.491 3.745-2.594 7.946.262 7.946 3.589 0 3.753-1.376 3.847-1.9 6.101H47.79c.98-1.077 2.736-4.123 3.482-4.899 2.277-4.666 2.334-9.276.43-13.517-1.528-3.404-9.383-10.517-9.801-11.873H40.1c.277 1.401 1.579 2.53 1.021 6.374-.003.525-.241 1.289-.358 1.843-.175.819-.947 1.203-1.783 1.203-.873 0-1.363-1.015-1.199-1.789.143-.674.51-2.009.51-2.7 0-1.583-.975-3.764-1.9-4.385-.925.621-1.899 2.774-1.899 4.385 0 .775.284 2.149.439 2.597.174.818-.363 1.788-1.199 1.788-.794 0-1.603-.354-1.782-1.203zM24.232 79.54c0 1.611 2.761 1.039 5.51 1.039l17.67-.001c1.764-.012 2.025-.246 3.288.955-.466 1.269-3.074 1.606-3.884 1.882-1.335.454-2.692.821-4.088 1.237-1.454 1.198-2.761.821-4.079 1.243-4.143 1.324-2.916.222-5.424 5.234-1.452 3.191-.542 2.621-5.929 4.35-1.126 1.021-3.011.923-3.376 1.497-1.472-2.419-12.046-14.046-12.728-16.605l3.325-2.487c1.216-.913 9.788-7.982 10.855-7.982.833 0 2.288.777 1.838 1.596.344 1.946-2.978 5.969-2.978 8.042zm5.89-38.999c1.068.024 2.22 1.319 3.668-1.276.412-.517.744-1.066 1.08-1.585.888-1.373 1.704-2.092 2.968-.116 1.976 3.089 2.146 3.037 4.822 2.977-.162.699-.989 3.432-1.709 3.432h-9.12c-.833 0-1.379-2.691-1.709-3.432z"/></svg>