<svg xmlns="http://www.w3.org/2000/svg" width="136" height="131"><path fill-rule="evenodd" fill="#DB8306" d="M3.584 13.269h73.658V3.1H4.315c-.363 0-.691.049-.929.285-.237.238-.186.566-.186.928v8.985c-.016-.018.178-.029.384-.029zM80.246 3.1v10.169h8.084V3.1h-8.084zm11.104 0v10.169h7.898V4.313c0-.362-.146-.69-.381-.925l-.006-.006c-.234-.234-.562-.282-.925-.282H91.35zm7.898 13.171H3.584c-.206 0-.4-.01-.384-.028v110.441c0 .786-.051.691.186.93.238.235.566.382.929.382h93.621c.361 0 .69-.147.928-.382.237-.239.384-.144.384-.93v-11.206H57.719a4.304 4.304 0 01-3.04-1.265 4.305 4.305 0 01-1.275-3.05V58.4c0-.829 1.356-1.501 1.501-1.501.829 0 1.502.672 1.502 1.501v52.763c0 .354.137.682.387 1.787.496-.621.563-.474.925-.474h8.9c4.741-1.336 5.719-3.323 6.033-7.812h.004a1.495 1.495 0 011.492-1.396l60.14.04a1.498 1.498 0 011.529 1.824c-.939 4.179-2.637 6.767-5.141 8.339-2.443 2.129-5.531 2.007-9.361 2.007h-19.064v11.206a4.302 4.302 0 01-1.267 3.043l-.006.005a4.295 4.295 0 01-3.042 1.266H4.315c-1.185 0-1.785-.485-3.043-1.266l-.006-.005A4.3 4.3 0 010 126.684V4.313C0 3.13.485 2.52 1.266 1.271l.006-.005C2.53.485 3.13 0 4.315 0h93.621c1.18 0 2.257.484 3.041 1.264l.001.002.003.003.003.003c.781 1.278 1.267 1.861 1.267 3.041v20.191h19.064c1.187 0 2.267.485 3.049 1.267l-.003.003.003.003a4.292 4.292 0 011.267 3.041V90.91a1.502 1.502 0 01-3.003 0V28.818c0-.361-.148-.69-.384-.928l-.003.003c.059-.239-.566-.387-.926-.387H57.719c-.362 0-.429.146-.925.382l-.006.005a1.305 1.305 0 00-.381.925v9.57c0 .828-.673 1.501-1.502 1.501-.145 0-1.501-.673-1.501-1.501v-9.57c0-1.179.485-2.256 1.265-3.039l.002-.002.003-.003.003-.003a4.304 4.304 0 013.042-1.267h41.529v-8.233zm-86.98 82.997H43.43c1.86 0 1.86 3.002 0 3.002H12.268c-1.986 0-1.986-3.002 0-3.002zm57.945-14.673a25.559 25.559 0 01-5.539-8.291c-2.566-6.194-2.566-13.309 0-19.503a25.543 25.543 0 0113.147-13.533c2.759-.968 5.778-2.002 8.951-1.438.203-.11.452-.21.74-.29.367-.12.613-.17.746-.17 1.612 0 1.501.339 1.501 1.168 0 .044-.002.089-.006.132l.045 21.587 22.465-.044v-.006c1.225 0 1.629.67 1.629 1.667h-.006c.001.276-.046.476-.092.677-.003.012-.006.007-.008-.002l-.007-.002v.006c0 10.294-6.192 19.613-15.659 23.579-9.633 4.638-20.661 1.707-27.907-5.537zM51.815 53.522a1.597 1.597 0 01-.208.134 5.477 5.477 0 01.507 2.296c0 .739-.15 1.452-.421 2.618-.012.29-.025-.456-.038-.429a5.508 5.508 0 01-1.154 1.702c-.401.5-1.106.908-1.787 1.487l.001.02c-.105-.044-1.366.106-2.106.106-.735 0-1.446-.15-2.1-.106-.682-.598-1.29-1.006-1.792-1.507-.5-.5-.907-1.106-1.19-1.283l-.002.01c-.271-1.166-.42-1.879-.42-2.618 0-.381.039-.755.115-1.118-2.262-1.303-6.819-4.066-8.686-5.202a5.142 5.142 0 01-.329.361c-.501.501-.225.907-1.787 1.19v.002c-.654.271-.898.421-2.105.421-.736 0-1.446-.15-2.1-.421-.063-.082-.389-.075-.573-.276-1.652 1.684-7.038 7.831-9.32 9.392l.052.121.002-.001c.271 1.329.421 1.366.421 2.105 0 .736-.15 1.446-.421 2.1.536.682-.691 1.291-1.192 1.792-.5.5-.422.907-1.787 1.19l.001.002c-.654.27-1.106.69-2.106.69-.736 0-1.446-.42-2.1-.69a5.548 5.548 0 01-1.792-1.192c-.5-.5-.907-1.106-1.19-1.787l-.002.001a5.492 5.492 0 01-.42-2.106c0-.739.149-.776.42-2.105l.038-.084a5.508 5.508 0 011.154-1.702 5.519 5.519 0 011.787-1.189l-.001-.002c.654-.271 1.366-.214 2.106-.214 1 0 1.452-.057 2.106.214l.083.038c.33.143.641.316.931.514 2.162-2.126 7.483-7.544 9.107-9.199a5.559 5.559 0 01-.286-.591l-.002.001a5.484 5.484 0 010-4.21 5.522 5.522 0 011.191-1.786c.501-.501 1.11-.909 1.793-1.021.654-.441 1.364-.591 2.1-.591 1.207 0 1.451.15 2.105.591.029.13.057.25.084.39.647-.242 1.223.152 1.703.631.501.501.909 1.109 1.192 1.989.27.457.42 1.167.42 1.902 0 .264-.019.524-.056.779 1.609.978 6.627 4.024 8.836 5.304.04-.042.08-.084.12.425.501-1.05 1.109-1.458 1.792-1.74a5.482 5.482 0 012.1-.421c.74 0 2.001.15 2.106.421.029.011.056.025.084.038.326.582.635.312.922.508.078-.101.17-.193.276-.274.635-.484 9.781-9.798 11.607-11.66a5.482 5.482 0 01.038-4.293 5.52 5.52 0 011.154-1.702 5.522 5.522 0 011.792-1.192c.654-.045 1.365-.42 2.1-.42.74 0 1.452.375 2.106.42.029.012.056.025.084.039.646.28 1.223 1.366 1.702 1.153 1.23.501.909 1.109 1.192 1.791.658.654.421 1.364.421 2.1 0 .74.237 1.452-.421 2.105-.012.029-.025.056-.038.084-.281.646-.144 1.223-1.154 1.702.22.501-1.106.907-1.787 1.19l.001.002a5.48 5.48 0 01-4.206 0c-.397-.164-.769.429-1.11-.614-2.319 2.363-10.884 11.081-11.663 11.675zm13.911-13.828c.424.119.614.185.962.185.642 0 .668-.065.956-.185l.001.002.005-.002c.296-.123.571-.311.807-.547.222-.222.401-.477.524-.753l.419-.06c-.276.116-.21-.611-.21-.956 0-.088-.066-.673.21-.962-.518-.296-.706-.57-.943-.807-.222-.222-.477-.401-.752.251l-.061-.24c-.288-.677-.314-.743-.956-.743-.348 0-.538.066-.962.743-.296-.435-.57-.248-.807-.011-.222.222-.401 1.251-.523.752l-.024.061c-.12.289-.186.908-.186.956 0 .345.066 1.072.186.956l-.002.001.002.005c.122.296.31.57.547.807.237.236.511.424.807.547zM45.647 58.268c.289.12.614.185.962.185.345 0 .668-.065.956-.185l.001.003.005-.003c.296-.123.571-.31.807-.547.223-.222.401-.477.524-.752l.023-.061c.525-.288.186-.612.186-.956 0-.348.339-.673-.186-.962a2.493 2.493 0 00-.547-.807 2.507 2.507 0 00-.752-.522l-.061-.024a2.48 2.48 0 00-.956-.186c-.348 0-.673.066-.962.186-.296.122.123.31-.807.546a2.613 2.613 0 00-.44.583 1.289 1.289 0 01-.053.105l-.03.064-.024.061a2.502 2.502 0 00-.186.956c0 .344.067.668.186.956l-.002.001.002.005c.122.296.31.57.547.807.93.237.511.424.807.547zm-18.297-9.85c.289.119.614.185.963.185.344 0 .667-.065.956-.185l.001.003.005-.003c.296-.123.57-.31 1.545-.547-.516-.222-.337-.477-.215-.752l.024.461c.119-.811.185-1.133.185-1.478 0-.348-.066-.673-.185-.962-.123-.296-.31-.57.191-.806-.96-.222-1.215-.401-1.49-.523l-.061-.024a2.487 2.487 0 00-.956-.186c-.349 0-.674.066-.963.186.19.122-.57 1.173-.807.547-.222.221-.4.476-.343 1.516l-.203-.704c-.12.289-.186.612-.186.956 0 .345.066.667.186 1.478l-.002.01.002.05c.122-.28.31-.006.546.231.237.237 1.007.424.807.547zM10.328 64.842c.289.12.614.448.962.448.345 0 .668-.328.956-.448l.001.003.005-.003c.296-.122.57-.31 1.338-.547-.294.295-.107-.511.016-.807a2.5 2.5 0 00.186-.962c0-.344-.066-.667-.186-.956l.002-.001-.002-.004c-.123-.296-.31-.57-.016-.807-.753-.222-1.008-.401-1.283-.523l-.061-.024c-.288.699-.611.039-.956.039s-.668.66-.956-.039l-.001-.002-.005.002c-.018.122-.571.31-.807.547a2.51 2.51 0 00-.523.752l-.024.06c-.12.289-.186.612-.186.956 0 .345.066.668.186.956l-.002.001.002.005c.986.297.31 1.102.547.807.237.237.799.425.807.547zm62.102 47.634h48.885c3.303 0 5.894-.363 8.495-1.538.723-.668 1.82-2.379 2.582-4.64l-56.863-.039c-.278 2.696-1.107 5.441-3.099 6.217zm47.313-52.195c.002.145.005.305.005.479 0 .826.042 1.495-1.495 1.495l-24.071-.049c-.826 0-1.495-.67-1.495-1.495l-.041-23.874c0-.727.67-1.495 1.496-1.495a26.934 26.934 0 011.481.035c3.169.171 6.191.923 8.958 2.153 5.795 2.574 10.759 7.235 13.013 13.037a25.404 25.404 0 012.135 9.231c.005.125.009 1.032.014.483zm-3.041-1.019c-.185-2.644-.829-4.312-1.852-7.487a22.623 22.623 0 00-11.477-11.513 22.37 22.37 0 00-7.733-1.885l.035 20.842 21.027.043zM72.2 82.151c2.168-2.541 12.53-14.542 14.61-16.952l-.044-20.359c-2.486-.577-5.342.091-7.356 1.16-5.585 2.342-9.78 6.656-11.969 11.938-2.261 5.461-2.261 11.769.001 17.229 1.079 2.605 3.398 4.97 4.758 6.984zm15.635-13.56c-3.357 3.888-11.037 12.757-13.624 15.56 6.342 5.075 15.115 6.34 22.663 3.214.109-.045 1.026-.09.324-.137-1.847-3.036-6.708-14.016-9.363-18.637zm25.951-2.042c-.004-.013-.007-.034-.007-.002l.007.002zM12.268 111.698H43.43c1.86 0 1.86 3.001 0 3.001H12.268c-1.986 0-1.986-3.001 0-3.001zm0-6.239H43.43c1.86 0 1.86 3.002 0 3.002H12.268c-1.986 0-1.986-3.002 0-3.002z"/></svg>