<svg xmlns="http://www.w3.org/2000/svg" width="132" height="123"><path fill-rule="evenodd" fill="#DB8306" d="M95.994 86.841V29.79h26.326v76.89c-12.007-.004-23.727-.022-35.445-.022V86.831l9.119.01zM34.728 28.835c2.446-2.456 3.676-5.694 3.692-8.937h-2.977c-.016 2.476-.955 4.946-2.822 6.82a9.625 9.625 0 01-6.679 2.833v-.039a9.562 9.562 0 01-.534.033c-.178-.006.122-.017-.532-.033v.039c-2.429-.042-4.546-.986-6.682-2.833a9.722 9.722 0 01-2.82-6.82h-2.977c.015 3.243 1.246 6.481 4.473 8.937 1.77 2.563 5.53 3.797 8.538 3.702 3.369.095 6.769-1.139 9.32-3.702zM11.704 14.626c0-3.753 1.406-7.77 4.496-10.674.947-1.125 2.234-2.003 3.609-2.636v4.85c0 1.822 2.742 1.821 2.742 0V.401a27.42 27.42 0 005.714 0v5.765c0 1.822 3.435 1.821 3.435 0v-4.85c.683.633 1.968 1.511 3.097 2.636 2.91 2.904 4.544 6.798 4.544 10.674h3.287c1.814 0 1.812 2.754 0 2.754H8.188c-1.811 0-1.814-2.754 0-2.754h3.516zm13.452 66.693v33.45c0 2.059-.839 3.932-2.188 5.791-2.468 2.428-7.598 2.425-10.52.05-.968-2.044-2.198-3.747-2.198-5.841V90.64c0-.646.004-.711.011-.776V75.377C6.23 78.709.5 75.497.5 70.84V43.695c0-3.571 2.292-6.195 5.901-6.195 6.158.01 12.316 0 18.475-.02h1.066c7.048.02 12.315.03 18.474.02 3.824 0 6.406 2.624 6.406 6.195V70.84c0 4.657-6.028 7.869-10.267 4.537v14.487c.007.065.012.13.012.776v24.129c0 2.094-.798 3.797-2.199 5.841-2.921 2.375-7.601 2.378-10.519-.05-1.35-1.859-2.19-3.732-2.19-5.791v-33.45h-.503zm.175-40.899c-6.111.01-12.619.03-18.93.03-2.015 0-3.843 1.157-3.843 3.245V70.84c0 4.117 7.686 3.952 7.686 0 0-6.36.017-12.71.017-18.862 0-1.868 2.959-1.848 2.959 0v37.886c.008.065.012.13.012.776v24.129c0 1.931.501 2.361 1.308 3.171 2.848 2.86 7.634.754 7.634-3.171V79.822c0-.826.669-1.497 1.492-1.497h3.484c.824 0 1.491.671 1.491 1.497v34.947c0 3.925 4.787 6.031 7.635 3.171 1.564-.81 1.309-1.24 1.309-3.171V90.64c0-.646.004-.711.011-.776V51.978c0-1.848 2.959-1.868 2.959 0 0 6.152.018 12.502.018 18.862 0 3.952 7.685 4.117 7.685 0V43.695c0-2.088-1.827-3.245-3.842-3.245-6.312 0-12.621-.02-18.93-.03h-.155zm41.004 12.74v-7.261c0-.923.6-1.527 1.519-1.527h16.804c.919 0 1.519.604 1.519 1.527v34.872h-3.798c-1.136.001-1.419.82-1.466 2.006-.025.67-.047 14.672-.055 21.823H76.75V54.544c0-.924-1.276-1.384-2.195-1.384h-8.22zm7.475 51.44l-.04-5.137v-41.86c0-.922-1.294-.833-2.213-.833H54.753c-.919 0-1.52-.089-1.52.833V101.4h-5.407c-.835 0-1.519.294-1.519 1.13 0 .837.686 2.03 1.519 2.03h2.368l.047.04H73.81zm18.063-77.89h2.647c-.336-.3-.196-.46-.047-.46h29.079c.149 0 .29.16.421.46h2.929c1.979 0 1.979 3.08 0 3.08h-1.192v76.88h4.769c.835 0 1.52.689 1.52 1.526 0 1.144-.687 1.526-1.52 1.526-26.218 0-52.049.004-78.654.004-2.02 0-2.021-3.068 0-3.068h32.004c-.002-6.319.026-19.994.06-20.874.046-1.187.329-2.006 1.465-2.006h7.6V29.79h-1.081c-1.98 0-1.98-3.08 0-3.08zm11.379 52.492h11.504c1.98 0 1.979 3.006 0 3.006h-11.504c-1.979 0-1.98-3.006 0-3.006zm0-6.203h11.504c1.98 0 1.979 3.601 0 3.601h-11.504c-1.979 0-1.98-3.601 0-3.601zm0-6.25h11.504c1.98 0 1.979 3.008 0 3.008h-11.504c-1.979 0-1.98-3.008 0-3.008zm0-12.357h11.504c1.98 0 1.979 3.007 0 3.007h-11.504c-1.979 0-1.98-3.007 0-3.007zm0-6.202h11.504c1.98 0 1.979 3.007 0 3.007h-11.504c-1.979 0-1.98-3.007 0-3.007zm0-12.452h11.504c1.98 0 1.979 3.007 0 3.007h-11.504c-1.979 0-1.98-3.007 0-3.007zm0 6.202h11.504c1.98 0 1.979 3.007 0 3.007h-11.504c-1.979 0-1.98-3.007 0-3.007zm0 18.702h11.504c1.98 0 1.979 3.006 0 3.006h-11.504c-1.979 0-1.98-3.006 0-3.006zM94.18 97.949h20.576c1.98 0 1.979 3.007 0 3.007H94.18c-1.978 0-1.979-3.007 0-3.007zm9.072-12.452h11.504c1.98 0 1.979 3.007 0 3.007h-11.504c-1.979 0-1.98-3.007 0-3.007zM94.18 91.7h20.576c1.98 0 1.979 3.007 0 3.007H94.18c-1.978 0-1.979-3.007 0-3.007z"/></svg>